<svg width="172" height="50" viewBox="0 0 172 50" fill="none" xmlns="http://www.w3.org/2000/svg">
<path fill-rule="evenodd" clip-rule="evenodd" d="M47.2144 7.62939e-06H32.7928L25.825 43.3225H35.0613L36.1956 35.0163H44.1356L45.2699 43.3225H54.6683L47.2144 7.62939e-06ZM39.5985 8.3062H40.7328L44.1356 28.1759H36.1956L39.5985 8.3062Z" fill="#AC2323"/>
<path fill-rule="evenodd" clip-rule="evenodd" d="M5.02328 0L0 5.04886V28.3388L5.18532 33.3876H17.5004V35.342H15.556V46.7427H19.1209L24.3062 35.6678V25.8958H7.12981V7.32899H13.4494V0H5.02328Z" fill="#AC2323"/>
<path fill-rule="evenodd" clip-rule="evenodd" d="M66.4974 7.62939e-06H57.261V4.3974H62.4463V5.21173H57.261V6.67754H60.1777V7.32899H57.261V8.95766H60.1777V9.60913H57.261V11.0749H60.1777V11.7264H57.261V13.1922H62.4463V13.8437H57.261V15.4723H60.1777V16.1238H57.261V17.5896H60.1777V18.2411H57.261V19.8697H60.1777V20.5212H57.261V21.8241H62.4463V22.6384H57.261V24.2671H60.1777V24.7557H57.261V26.3844H60.1777V27.0358H57.261V28.5016H60.1777V29.1531H57.261V30.6189H62.4463V31.4332H57.261V32.899H60.1777V33.5505H57.261V35.0163H60.1777V35.8306H57.261V37.2964H60.1777V37.9479H57.261V39.4137H62.4463V40.228H57.261V43.3225H77.8402V35.0163H66.4974V7.62939e-06Z" fill="#AC2323"/>
<path fill-rule="evenodd" clip-rule="evenodd" d="M77.8402 27.6873H67.4696L69.4141 30.6189L79.7847 34.202V43.9739C77.5439 44.373 76.5439 45.2769 76.5439 47.0684C76.5439 49.1857 77.578 49.8521 79.7847 50H82.8635V28.5016H77.8402V27.6873Z" fill="#AC2323"/>
<path fill-rule="evenodd" clip-rule="evenodd" d="M89.9933 7.62939e-06H80.757V4.3974H85.7803V5.21173H80.757V6.67754H83.5117V7.32899H80.757V8.95766H83.5117V9.44626H80.757V11.0749H83.5117V11.7264H80.757V13.1922H85.7803V13.8437H80.757V15.4723H83.5117V16.1238H80.757V17.5896H83.5117V18.2411H80.757V19.8697H83.5117V20.5212H80.757V21.8241H85.7803V22.6384H80.757V27.0358H83.8358V43.3225H87.2386V12.3779H92.2619V9.44626H93.0721V10.0977H99.7158C98.9056 8.79479 97.1231 7.65473 94.8546 7.00327H89.9933V7.62939e-06Z" fill="#AC2323"/>
<path fill-rule="evenodd" clip-rule="evenodd" d="M92.2619 13.8437H88.0488V43.3225H92.2619V28.5016H93.0721V29.316H94.8546V25.57H93.0721V26.3844H92.2619V13.8437Z" fill="#AC2323"/>
<path fill-rule="evenodd" clip-rule="evenodd" d="M95.6648 6.3518V7.62939e-06H113.003L119.647 6.3518V21.8241L113.003 28.5016H104.901L104.739 43.3225H95.6648V11.0749H100.85C100.526 8.63193 98.9056 7.329 95.6648 6.3518ZM104.901 7.98046H110.573V20.5212H104.901V7.98046Z" fill="#AC2323"/>
<path fill-rule="evenodd" clip-rule="evenodd" d="M143.305 7.62939e-06H123.212V43.3225H143.305V35.0163H132.448V24.43H141.685V16.1238H132.448V7.98046H143.305V7.62939e-06Z" fill="#AC2323"/>
<path fill-rule="evenodd" clip-rule="evenodd" d="M147.194 43.3225V7.62939e-06H165.18L171.5 5.8632V16.9381L166.153 21.8241L171.5 25.57V43.3225H162.426V25.57H156.268V43.3225H147.194ZM156.268 7.98046H162.426V17.5896H156.268V7.98046Z" fill="#AC2323"/>
</svg>
