<svg width="483" height="311" viewBox="0 0 483 311" fill="none" xmlns="http://www.w3.org/2000/svg">
<path fill-rule="evenodd" clip-rule="evenodd" d="M103.5 18V35.5H118V0.5H147V53H161.5V0.5H190.5V35.5H205.5V0.5H234V53H249V0.5H277.5V35.5H292.5V0.5H321.5L321 53H336V3.5V0.5H365.5V35.5H379.5V18H428L465 54.5V256.5L428 292.5H379.5V275.5H365V310.5H336V258H321V310.5H292.5V275.5H277.773V310.5H249V258H234V310.5H205.5V275.5H190.5V310.5H161.5V258H147V310.5H118V275.5H103V292.5H55L18.5 256.5V54.5L55.5 18H103.5Z" fill="#AC2323"/>
<path d="M118 0.5V35.5H103.5V18H55.5L18.5 54.5V256.5L55 292.5H103V275.5H118V310.5M118 0.5H147M118 0.5H47.5L0.5 48V262.5L47 310.5H118M147 0.5V53H161.5V0.5M147 0.5H161.5M161.5 0.5H190.5M190.5 0.5V35.5H205.5V0.5M190.5 0.5H205.5M205.5 0.5H234M234 0.5V53H249V0.5M234 0.5H249M249 0.5H277.5M277.5 0.5V35.5H292.5V0.5M277.5 0.5H292.5M292.5 0.5H321.5M321.5 0.5L321 53H336V3.5V0.5M321.5 0.5H336M336 0.5H365.5M365.5 0.5V35.5H379.5V18H428L465 54.5V256.5L428 292.5H379.5V275.5H365V310.5M365.5 0.5H435L482.5 48V263L435 310.5H365M365 310.5H336M336 310.5V258H321V310.5M336 310.5H321M321 310.5H292.5M292.5 310.5V275.5H277.773V310.5M292.5 310.5H277.773M277.773 310.5H249M249 310.5V258H234V310.5M249 310.5H234M234 310.5H205.5M205.5 310.5V275.5H190.5V310.5M205.5 310.5H190.5M190.5 310.5H161.5M161.5 310.5V258H147V310.5M161.5 310.5H147M147 310.5H118" stroke="#AC2323"/>
</svg>
