<svg width="483" height="311" viewBox="0 0 483 311" fill="none" xmlns="http://www.w3.org/2000/svg">
<path fill-rule="evenodd" clip-rule="evenodd" d="M103.5 35.5V18H55.5L18.5 54.5V256.5L55 292.5H103V275.5H118V310.5H47L0.5 262.5V48L47.5 0.5H118V35.5H103.5Z" fill="#AC2323"/>
<path fill-rule="evenodd" clip-rule="evenodd" d="M147 310.5V258H161.5V310.5H147Z" fill="#AC2323"/>
<path fill-rule="evenodd" clip-rule="evenodd" d="M190.5 310.5V275.5H205.5V310.5H190.5Z" fill="#AC2323"/>
<path fill-rule="evenodd" clip-rule="evenodd" d="M234 310.5V258H249V310.5H234Z" fill="#AC2323"/>
<path fill-rule="evenodd" clip-rule="evenodd" d="M277.773 310.5V275.5H292.5V310.5H277.773Z" fill="#AC2323"/>
<path fill-rule="evenodd" clip-rule="evenodd" d="M321 310.5V258H336V310.5H321Z" fill="#AC2323"/>
<path fill-rule="evenodd" clip-rule="evenodd" d="M365 310.5V275.5H379.5V292.5H428L465 256.5V54.5L428 18H379.5V35.5H365.5V0.5H435L482.5 48V263L435 310.5H365Z" fill="#AC2323"/>
<path fill-rule="evenodd" clip-rule="evenodd" d="M336 53H321L321.5 0.5H336V3.5V53Z" fill="#AC2323"/>
<path fill-rule="evenodd" clip-rule="evenodd" d="M292.5 35.5H277.5V0.5H292.5V35.5Z" fill="#AC2323"/>
<path fill-rule="evenodd" clip-rule="evenodd" d="M249 0.5V53H234V0.5H249Z" fill="#AC2323"/>
<path fill-rule="evenodd" clip-rule="evenodd" d="M205.5 0.5V35.5H190.5V0.5H205.5Z" fill="#AC2323"/>
<path fill-rule="evenodd" clip-rule="evenodd" d="M161.5 0.5V53H147V0.5H161.5Z" fill="#AC2323"/>
<path d="M118 310.5V275.5H103V292.5H55L18.5 256.5V54.5L55.5 18H103.5V35.5H118V0.5M118 310.5H47L0.5 262.5V48L47.5 0.5H118M118 310.5H147M118 0.5H147M147 310.5V258H161.5V310.5M147 310.5H161.5M161.5 310.5H190.5M190.5 310.5V275.5H205.5V310.5M190.5 310.5H205.5M205.5 310.5H234M234 310.5V258H249V310.5M234 310.5H249M249 310.5H277.773M277.773 310.5V275.5H292.5V310.5M277.773 310.5H292.5M292.5 310.5H321M321 310.5V258H336V310.5M321 310.5H336M336 310.5H365M365 310.5V275.5H379.5V292.5H428L465 256.5V54.5L428 18H379.5V35.5H365.5V0.5M365 310.5H435L482.5 263V48L435 0.5H365.5M365.5 0.5H336M321.5 0.5L321 53H336V3.5V0.5M321.5 0.5H336M321.5 0.5H292.5M277.5 0.5V35.5H292.5V0.5M277.5 0.5H292.5M277.5 0.5H249M249 0.5V53H234V0.5M249 0.5H234M234 0.5H205.5M205.5 0.5V35.5H190.5V0.5M205.5 0.5H190.5M190.5 0.5H161.5M161.5 0.5V53H147V0.5M161.5 0.5H147" stroke="#AC2323"/>
</svg>
